<svg width="17" height="17" viewBox="0 0 17 17" fill="none" xmlns="http://www.w3.org/2000/svg">
<g clip-path="url(#clip0_12_75)">
<path d="M15.3664 17H1.63359C1.20047 16.9996 0.785201 16.8273 0.478935 16.5211C0.172668 16.2148 0.000421945 15.7995 0 15.3664L0 6.10938C0 6.03893 0.0279854 5.97136 0.0777998 5.92155C0.127614 5.87174 0.195177 5.84375 0.265625 5.84375H16.7344C16.8048 5.84375 16.8724 5.87174 16.9222 5.92155C16.972 5.97136 17 6.03893 17 6.10938V15.3664C16.9996 15.7995 16.8273 16.2148 16.5211 16.5211C16.2148 16.8273 15.7995 16.9996 15.3664 17ZM0.53125 6.375V15.3664C0.531531 15.6587 0.647761 15.9389 0.85443 16.1456C1.0611 16.3522 1.34132 16.4685 1.63359 16.4688H15.3664C15.6587 16.4685 15.9389 16.3522 16.1456 16.1456C16.3522 15.9389 16.4685 15.6587 16.4688 15.3664V6.375H0.53125Z" fill="white"/>
<path d="M6.10937 1.59375H3.45312C3.38268 1.59375 3.31511 1.56576 3.2653 1.51595C3.21549 1.46614 3.1875 1.39857 3.1875 1.32812C3.1875 1.25768 3.21549 1.19011 3.2653 1.1403C3.31511 1.09049 3.38268 1.0625 3.45312 1.0625H6.10937C6.17982 1.0625 6.24739 1.09049 6.2972 1.1403C6.34701 1.19011 6.375 1.25768 6.375 1.32812C6.375 1.39857 6.34701 1.46614 6.2972 1.51595C6.24739 1.56576 6.17982 1.59375 6.10937 1.59375Z" fill="white"/>
<path d="M13.5469 1.59375H10.8906C10.8202 1.59375 10.7526 1.56576 10.7028 1.51595C10.653 1.46614 10.625 1.39857 10.625 1.32812C10.625 1.25768 10.653 1.19011 10.7028 1.1403C10.7526 1.09049 10.8202 1.0625 10.8906 1.0625H13.5469C13.6173 1.0625 13.6849 1.09049 13.7347 1.1403C13.7845 1.19011 13.8125 1.25768 13.8125 1.32812C13.8125 1.39857 13.7845 1.46614 13.7347 1.51595C13.6849 1.56576 13.6173 1.59375 13.5469 1.59375Z" fill="white"/>
<path d="M16.7344 6.375H0.265625C0.195177 6.375 0.127614 6.34701 0.0777998 6.2972C0.0279854 6.24739 0 6.17982 0 6.10938V2.69609C0.000492125 2.26299 0.17276 1.84776 0.479012 1.54151C0.785264 1.23526 1.20049 1.06299 1.63359 1.0625H2.39062C2.46107 1.0625 2.52864 1.09049 2.57845 1.1403C2.62826 1.19011 2.65625 1.25768 2.65625 1.32812C2.65625 1.39857 2.62826 1.46614 2.57845 1.51595C2.52864 1.56576 2.46107 1.59375 2.39062 1.59375H1.63359C1.34134 1.5941 1.06116 1.71035 0.854507 1.91701C0.647854 2.12366 0.531601 2.40384 0.53125 2.69609V5.84375H16.4688V2.69609C16.4684 2.40384 16.3521 2.12366 16.1455 1.91701C15.9388 1.71035 15.6587 1.5941 15.3664 1.59375H14.6094C14.5389 1.59375 14.4714 1.56576 14.4215 1.51595C14.3717 1.46614 14.3438 1.39857 14.3438 1.32812C14.3438 1.25768 14.3717 1.19011 14.4215 1.1403C14.4714 1.09049 14.5389 1.0625 14.6094 1.0625H15.3664C15.7995 1.06299 16.2147 1.23526 16.521 1.54151C16.8272 1.84776 16.9995 2.26299 17 2.69609V6.10938C17 6.17982 16.972 6.24739 16.9222 6.2972C16.8724 6.34701 16.8048 6.375 16.7344 6.375Z" fill="white"/>
<path d="M9.82812 1.59375H7.17187C7.10143 1.59375 7.03386 1.56576 6.98405 1.51595C6.93424 1.46614 6.90625 1.39857 6.90625 1.32812C6.90625 1.25768 6.93424 1.19011 6.98405 1.1403C7.03386 1.09049 7.10143 1.0625 7.17187 1.0625H9.82812C9.89857 1.0625 9.96614 1.09049 10.016 1.1403C10.0658 1.19011 10.0937 1.25768 10.0937 1.32812C10.0937 1.39857 10.0658 1.46614 10.016 1.51595C9.96614 1.56576 9.89857 1.59375 9.82812 1.59375Z" fill="white"/>
<path d="M2.92187 5.04684C2.62945 5.04712 2.34512 4.95084 2.11304 4.77294C1.88095 4.59505 1.7141 4.3455 1.6384 4.06305C1.56269 3.78059 1.58237 3.48105 1.69438 3.21093C1.80638 2.94081 2.00445 2.71523 2.25781 2.56923C2.31892 2.534 2.39153 2.5245 2.45965 2.54281C2.52777 2.56111 2.58583 2.60573 2.62105 2.66684C2.65628 2.72796 2.66578 2.80056 2.64747 2.86868C2.62917 2.9368 2.58455 2.99486 2.52344 3.03009C2.37166 3.11791 2.25309 3.25334 2.1861 3.4154C2.11911 3.57745 2.10745 3.75708 2.15291 3.92643C2.19838 4.09579 2.29844 4.24542 2.43758 4.35214C2.57673 4.45885 2.74718 4.51669 2.92254 4.51669C3.09789 4.51669 3.26835 4.45885 3.40749 4.35214C3.54663 4.24542 3.64669 4.09579 3.69216 3.92643C3.73763 3.75708 3.72596 3.57745 3.65897 3.4154C3.59199 3.25334 3.47341 3.11791 3.32164 3.03009C3.26052 2.99504 3.21584 2.93715 3.19741 2.86915C3.17897 2.80116 3.18831 2.72862 3.22336 2.66751C3.25841 2.60639 3.31629 2.56171 3.38429 2.54328C3.45229 2.52484 3.52482 2.53418 3.58594 2.56923C3.8393 2.71523 4.03736 2.94081 4.14937 3.21093C4.26137 3.48105 4.28105 3.78059 4.20535 4.06305C4.12964 4.3455 3.96279 4.59505 3.73071 4.77294C3.49862 4.95084 3.21429 5.04712 2.92187 5.04684Z" fill="white"/>
<path d="M6.64057 5.04692C6.3482 5.04706 6.06397 4.95067 5.832 4.77272C5.60003 4.59477 5.43329 4.34522 5.35767 4.0628C5.28205 3.78039 5.30178 3.48091 5.4138 3.21085C5.52582 2.9408 5.72386 2.71528 5.97717 2.5693C6.00743 2.55191 6.04082 2.54064 6.07544 2.53615C6.11005 2.53165 6.14521 2.53402 6.17891 2.54312C6.21261 2.55221 6.24419 2.56786 6.27184 2.58916C6.2995 2.61046 6.32268 2.63699 6.34008 2.66725C6.35748 2.69751 6.36874 2.7309 6.37324 2.76552C6.37773 2.80013 6.37536 2.8353 6.36627 2.86899C6.35717 2.90269 6.34153 2.93427 6.32023 2.96193C6.29893 2.98958 6.27239 3.01277 6.24213 3.03016C6.09035 3.11799 5.97178 3.25342 5.9048 3.41547C5.83781 3.57753 5.82614 3.75715 5.87161 3.92651C5.91708 4.09587 6.01713 4.2455 6.15628 4.35221C6.29542 4.45893 6.46588 4.51677 6.64123 4.51677C6.81659 4.51677 6.98704 4.45893 7.12619 4.35221C7.26533 4.2455 7.36539 4.09587 7.41086 3.92651C7.45632 3.75715 7.44466 3.57753 7.37767 3.41547C7.31068 3.25342 7.19211 3.11799 7.04033 3.03016C7.01007 3.01281 6.98353 2.98967 6.96221 2.96205C6.9409 2.93444 6.92523 2.9029 6.9161 2.86923C6.89767 2.80123 6.907 2.7287 6.94205 2.66759C6.9771 2.60647 7.03499 2.56178 7.10299 2.54335C7.17098 2.52492 7.24352 2.53426 7.30463 2.5693C7.55799 2.71531 7.75606 2.94089 7.86806 3.21101C7.98007 3.48113 7.99975 3.78067 7.92404 4.06312C7.84834 4.34558 7.68149 4.59513 7.44941 4.77302C7.21732 4.95092 6.93299 5.0472 6.64057 5.04692Z" fill="white"/>
<path d="M10.3594 5.04684C10.067 5.04712 9.78262 4.95084 9.55054 4.77294C9.31845 4.59505 9.1516 4.3455 9.0759 4.06305C9.00019 3.78059 9.01987 3.48105 9.13188 3.21093C9.24388 2.94081 9.44195 2.71523 9.69531 2.56923C9.72557 2.55178 9.75897 2.54047 9.7936 2.53594C9.82823 2.53141 9.86342 2.53374 9.89715 2.5428C9.93088 2.55187 9.96249 2.56749 9.99019 2.58877C10.0179 2.61005 10.0411 2.63658 10.0586 2.66684C10.076 2.6971 10.0873 2.7305 10.0918 2.76513C10.0964 2.79977 10.094 2.83495 10.085 2.86868C10.0759 2.90241 10.0603 2.93403 10.039 2.96172C10.0177 2.98941 9.9912 3.01264 9.96094 3.03009C9.80916 3.11791 9.69059 3.25334 9.6236 3.4154C9.55661 3.57745 9.54495 3.75708 9.59041 3.92643C9.63588 4.09579 9.73594 4.24542 9.87508 4.35214C10.0142 4.45885 10.1847 4.51669 10.36 4.51669C10.5354 4.51669 10.7058 4.45885 10.845 4.35214C10.9841 4.24542 11.0842 4.09579 11.1297 3.92643C11.1751 3.75708 11.1635 3.57745 11.0965 3.4154C11.0295 3.25334 10.9109 3.11791 10.7591 3.03009C10.698 2.99504 10.6533 2.93715 10.6349 2.86915C10.6165 2.80115 10.6258 2.72862 10.6609 2.66751C10.6959 2.60639 10.7538 2.56171 10.8218 2.54327C10.8898 2.52484 10.9623 2.53418 11.0234 2.56923C11.2768 2.71523 11.4749 2.94081 11.5869 3.21093C11.6989 3.48105 11.7186 3.78059 11.6428 4.06305C11.5671 4.3455 11.4003 4.59505 11.1682 4.77294C10.9361 4.95084 10.6518 5.04712 10.3594 5.04684Z" fill="white"/>
<path d="M14.0781 5.04688C13.7857 5.04716 13.5014 4.95088 13.2693 4.77298C13.0372 4.59508 12.8704 4.34553 12.7946 4.06308C12.7189 3.78063 12.7386 3.48108 12.8506 3.21096C12.9626 2.94084 13.1607 2.71527 13.4141 2.56926C13.4443 2.55191 13.4777 2.54068 13.5123 2.53623C13.5469 2.53178 13.582 2.53418 13.6157 2.54331C13.6494 2.55244 13.6809 2.5681 13.7085 2.58942C13.7361 2.61074 13.7593 2.63728 13.7766 2.66754C13.794 2.6978 13.8052 2.73119 13.8097 2.76578C13.8141 2.80038 13.8117 2.83552 13.8026 2.86919C13.7935 2.90286 13.7778 2.9344 13.7565 2.96201C13.7352 2.98962 13.7086 3.01277 13.6784 3.03012C13.5266 3.11794 13.408 3.25338 13.341 3.41543C13.274 3.57749 13.2624 3.75711 13.3078 3.92647C13.3533 4.09582 13.4534 4.24546 13.5925 4.35217C13.7316 4.45889 13.9021 4.51673 14.0775 4.51673C14.2528 4.51673 14.4233 4.45889 14.5624 4.35217C14.7016 4.24546 14.8016 4.09582 14.8471 3.92647C14.8925 3.75711 14.8809 3.57749 14.8139 3.41543C14.7469 3.25338 14.6283 3.11794 14.4766 3.03012C14.4154 2.99507 14.3708 2.93718 14.3523 2.86919C14.3339 2.80119 14.3432 2.72866 14.3783 2.66754C14.4133 2.60643 14.4712 2.56174 14.5392 2.54331C14.6072 2.52488 14.6797 2.53421 14.7409 2.56926C14.9941 2.71521 15.1921 2.94067 15.3042 3.21066C15.4162 3.48064 15.436 3.78006 15.3604 4.06244C15.2849 4.34482 15.1183 4.59437 14.8864 4.77237C14.6546 4.95037 14.3704 5.04687 14.0781 5.04688Z" fill="white"/>
<path d="M3.05469 3.98438H2.78906C2.61301 3.98416 2.44422 3.91413 2.31973 3.78964C2.19524 3.66515 2.12521 3.49637 2.125 3.32031V0.664062C2.12521 0.488007 2.19524 0.319223 2.31973 0.194732C2.44422 0.0702421 2.61301 0.000210887 2.78906 0L3.05469 0C3.23074 0.000210887 3.39953 0.0702421 3.52402 0.194732C3.64851 0.319223 3.71854 0.488007 3.71875 0.664062V3.32031C3.71854 3.49637 3.64851 3.66515 3.52402 3.78964C3.39953 3.91413 3.23074 3.98416 3.05469 3.98438ZM2.78906 0.53125C2.75384 0.53125 2.72006 0.545243 2.69515 0.57015C2.67024 0.595057 2.65625 0.628838 2.65625 0.664062V3.32031C2.65625 3.35554 2.67024 3.38932 2.69515 3.41423C2.72006 3.43913 2.75384 3.45312 2.78906 3.45312H3.05469C3.08991 3.45312 3.12369 3.43913 3.1486 3.41423C3.17351 3.38932 3.1875 3.35554 3.1875 3.32031V0.664062C3.1875 0.628838 3.17351 0.595057 3.1486 0.57015C3.12369 0.545243 3.08991 0.53125 3.05469 0.53125H2.78906Z" fill="white"/>
<path d="M6.77344 3.98438H6.50781C6.33176 3.98416 6.16297 3.91413 6.03848 3.78964C5.91399 3.66515 5.84396 3.49637 5.84375 3.32031V0.664062C5.84396 0.488007 5.91399 0.319223 6.03848 0.194732C6.16297 0.0702421 6.33176 0.000210887 6.50781 0L6.77344 0C6.94949 0.000210887 7.11828 0.0702421 7.24277 0.194732C7.36726 0.319223 7.43729 0.488007 7.4375 0.664062V3.32031C7.43729 3.49637 7.36726 3.66515 7.24277 3.78964C7.11828 3.91413 6.94949 3.98416 6.77344 3.98438ZM6.50781 0.53125C6.47259 0.53125 6.43881 0.545243 6.4139 0.57015C6.38899 0.595057 6.375 0.628838 6.375 0.664062V3.32031C6.375 3.35554 6.38899 3.38932 6.4139 3.41423C6.43881 3.43913 6.47259 3.45312 6.50781 3.45312H6.77344C6.80866 3.45312 6.84244 3.43913 6.86735 3.41423C6.89226 3.38932 6.90625 3.35554 6.90625 3.32031V0.664062C6.90625 0.628838 6.89226 0.595057 6.86735 0.57015C6.84244 0.545243 6.80866 0.53125 6.77344 0.53125H6.50781Z" fill="white"/>
<path d="M10.4922 3.98438H10.2266C10.0505 3.98416 9.88172 3.91413 9.75723 3.78964C9.63274 3.66515 9.56271 3.49637 9.5625 3.32031V0.664062C9.56271 0.488007 9.63274 0.319223 9.75723 0.194732C9.88172 0.0702421 10.0505 0.000210887 10.2266 0L10.4922 0C10.6682 0.000210887 10.837 0.0702421 10.9615 0.194732C11.086 0.319223 11.156 0.488007 11.1562 0.664062V3.32031C11.156 3.49637 11.086 3.66515 10.9615 3.78964C10.837 3.91413 10.6682 3.98416 10.4922 3.98438ZM10.2266 0.53125C10.1913 0.53125 10.1576 0.545243 10.1326 0.57015C10.1077 0.595057 10.0937 0.628838 10.0937 0.664062V3.32031C10.0937 3.35554 10.1077 3.38932 10.1326 3.41423C10.1576 3.43913 10.1913 3.45312 10.2266 3.45312H10.4922C10.5274 3.45312 10.5612 3.43913 10.5861 3.41423C10.611 3.38932 10.625 3.35554 10.625 3.32031V0.664062C10.625 0.628838 10.611 0.595057 10.5861 0.57015C10.5612 0.545243 10.5274 0.53125 10.4922 0.53125H10.2266Z" fill="white"/>
<path d="M14.2109 3.98438H13.9453C13.7693 3.98416 13.6005 3.91413 13.476 3.78964C13.3515 3.66515 13.2815 3.49637 13.2812 3.32031V0.664062C13.2815 0.488007 13.3515 0.319223 13.476 0.194732C13.6005 0.0702421 13.7693 0.000210887 13.9453 0L14.2109 0C14.387 0.000210887 14.5558 0.0702421 14.6803 0.194732C14.8048 0.319223 14.8748 0.488007 14.875 0.664062V3.32031C14.8748 3.49637 14.8048 3.66515 14.6803 3.78964C14.5558 3.91413 14.387 3.98416 14.2109 3.98438ZM13.9453 0.53125C13.9101 0.53125 13.8763 0.545243 13.8514 0.57015C13.8265 0.595057 13.8125 0.628838 13.8125 0.664062V3.32031C13.8125 3.35554 13.8265 3.38932 13.8514 3.41423C13.8763 3.43913 13.9101 3.45312 13.9453 3.45312H14.2109C14.2462 3.45312 14.2799 3.43913 14.3049 3.41423C14.3298 3.38932 14.3437 3.35554 14.3437 3.32031V0.664062C14.3437 0.628838 14.3298 0.595057 14.3049 0.57015C14.2799 0.545243 14.2462 0.53125 14.2109 0.53125H13.9453Z" fill="white"/>
<path d="M4.37856 10.625H3.05894C2.81132 10.6248 2.57391 10.5263 2.39882 10.3512C2.22372 10.1761 2.12525 9.93868 2.125 9.69106V8.37144C2.12525 8.12382 2.22372 7.88641 2.39882 7.71132C2.57391 7.53622 2.81132 7.43775 3.05894 7.4375H4.37856C4.62618 7.43775 4.86359 7.53622 5.03868 7.71132C5.21378 7.88641 5.31225 8.12382 5.3125 8.37144V9.69106C5.31225 9.93868 5.21378 10.1761 5.03868 10.3512C4.86359 10.5263 4.62618 10.6248 4.37856 10.625ZM3.05894 7.96875C2.95217 7.96886 2.84981 8.01132 2.77431 8.08681C2.69882 8.16231 2.65636 8.26467 2.65625 8.37144V9.69106C2.65636 9.79783 2.69882 9.90019 2.77431 9.97569C2.84981 10.0512 2.95217 10.0936 3.05894 10.0938H4.37856C4.48533 10.0936 4.58769 10.0512 4.66319 9.97569C4.73868 9.90019 4.78114 9.79783 4.78125 9.69106V8.37144C4.78114 8.26467 4.73868 8.16231 4.66319 8.08681C4.58769 8.01132 4.48533 7.96886 4.37856 7.96875H3.05894Z" fill="white"/>
<path d="M4.37856 15.4062H3.05894C2.81132 15.406 2.57391 15.3075 2.39882 15.1324C2.22372 14.9573 2.12525 14.7199 2.125 14.4723V13.1527C2.12525 12.9051 2.22372 12.6677 2.39882 12.4926C2.57391 12.3175 2.81132 12.219 3.05894 12.2188H4.37856C4.62618 12.219 4.86359 12.3175 5.03868 12.4926C5.21378 12.6677 5.31225 12.9051 5.3125 13.1527V14.4723C5.31225 14.7199 5.21378 14.9573 5.03868 15.1324C4.86359 15.3075 4.62618 15.406 4.37856 15.4062ZM3.05894 12.75C2.95217 12.7501 2.84981 12.7926 2.77431 12.8681C2.69882 12.9436 2.65636 13.0459 2.65625 13.1527V14.4723C2.65636 14.5791 2.69882 14.6814 2.77431 14.7569C2.84981 14.8324 2.95217 14.8749 3.05894 14.875H4.37856C4.48533 14.8749 4.58769 14.8324 4.66319 14.7569C4.73868 14.6814 4.78114 14.5791 4.78125 14.4723V13.1527C4.78114 13.0459 4.73868 12.9436 4.66319 12.8681C4.58769 12.7926 4.48533 12.7501 4.37856 12.75H3.05894Z" fill="white"/>
<path d="M9.15981 15.4062H7.84019C7.59257 15.406 7.35516 15.3075 7.18007 15.1324C7.00497 14.9573 6.9065 14.7199 6.90625 14.4723V13.1527C6.9065 12.9051 7.00497 12.6677 7.18007 12.4926C7.35516 12.3175 7.59257 12.219 7.84019 12.2188H9.15981C9.40743 12.219 9.64484 12.3175 9.81993 12.4926C9.99503 12.6677 10.0935 12.9051 10.0937 13.1527V14.4723C10.0935 14.7199 9.99503 14.9573 9.81993 15.1324C9.64484 15.3075 9.40743 15.406 9.15981 15.4062ZM7.84019 12.75C7.73342 12.7501 7.63106 12.7926 7.55556 12.8681C7.48007 12.9436 7.43761 13.0459 7.4375 13.1527V14.4723C7.43761 14.5791 7.48007 14.6814 7.55556 14.7569C7.63106 14.8324 7.73342 14.8749 7.84019 14.875H9.15981C9.26658 14.8749 9.36894 14.8324 9.44444 14.7569C9.51993 14.6814 9.56239 14.5791 9.5625 14.4723V13.1527C9.56239 13.0459 9.51993 12.9436 9.44444 12.8681C9.36894 12.7926 9.26658 12.7501 9.15981 12.75H7.84019Z" fill="white"/>
<path d="M13.9411 15.4062H12.6214C12.3738 15.406 12.1364 15.3075 11.9613 15.1324C11.7862 14.9573 11.6877 14.7199 11.6875 14.4723V13.1527C11.6877 12.9051 11.7862 12.6677 11.9613 12.4926C12.1364 12.3175 12.3738 12.219 12.6214 12.2188H13.9411C14.1887 12.219 14.4261 12.3175 14.6012 12.4926C14.7763 12.6677 14.8748 12.9051 14.875 13.1527V14.4723C14.8748 14.7199 14.7763 14.9573 14.6012 15.1324C14.4261 15.3075 14.1887 15.406 13.9411 15.4062ZM12.6214 12.75C12.5147 12.7501 12.4123 12.7926 12.3368 12.8681C12.2613 12.9436 12.2189 13.0459 12.2187 13.1527V14.4723C12.2189 14.5791 12.2613 14.6814 12.3368 14.7569C12.4123 14.8324 12.5147 14.8749 12.6214 14.875H13.9411C14.0478 14.8749 14.1502 14.8324 14.2257 14.7569C14.3012 14.6814 14.3436 14.5791 14.3437 14.4723V13.1527C14.3436 13.0459 14.3012 12.9436 14.2257 12.8681C14.1502 12.7926 14.0478 12.7501 13.9411 12.75H12.6214Z" fill="white"/>
<path d="M9.15981 10.625H7.84019C7.59257 10.6248 7.35516 10.5263 7.18007 10.3512C7.00497 10.1761 6.9065 9.93868 6.90625 9.69106V8.37144C6.9065 8.12382 7.00497 7.88641 7.18007 7.71132C7.35516 7.53622 7.59257 7.43775 7.84019 7.4375H9.15981C9.40743 7.43775 9.64484 7.53622 9.81993 7.71132C9.99503 7.88641 10.0935 8.12382 10.0937 8.37144V9.69106C10.0935 9.93868 9.99503 10.1761 9.81993 10.3512C9.64484 10.5263 9.40743 10.6248 9.15981 10.625ZM7.84019 7.96875C7.73342 7.96886 7.63106 8.01132 7.55556 8.08681C7.48007 8.16231 7.43761 8.26467 7.4375 8.37144V9.69106C7.43761 9.79783 7.48007 9.90019 7.55556 9.97569C7.63106 10.0512 7.73342 10.0936 7.84019 10.0938H9.15981C9.26658 10.0936 9.36894 10.0512 9.44444 9.97569C9.51993 9.90019 9.56239 9.79783 9.5625 9.69106V8.37144C9.56239 8.26467 9.51993 8.16231 9.44444 8.08681C9.36894 8.01132 9.26658 7.96886 9.15981 7.96875H7.84019Z" fill="white"/>
<path d="M13.9411 10.625H12.6214C12.3738 10.6248 12.1364 10.5263 11.9613 10.3512C11.7862 10.1761 11.6877 9.93868 11.6875 9.69106V8.37144C11.6877 8.12382 11.7862 7.88641 11.9613 7.71132C12.1364 7.53622 12.3738 7.43775 12.6214 7.4375H13.9411C14.1887 7.43775 14.4261 7.53622 14.6012 7.71132C14.7763 7.88641 14.8748 8.12382 14.875 8.37144V9.69106C14.8748 9.93868 14.7763 10.1761 14.6012 10.3512C14.4261 10.5263 14.1887 10.6248 13.9411 10.625ZM12.6214 7.96875C12.5147 7.96886 12.4123 8.01132 12.3368 8.08681C12.2613 8.16231 12.2189 8.26467 12.2187 8.37144V9.69106C12.2189 9.79783 12.2613 9.90019 12.3368 9.97569C12.4123 10.0512 12.5147 10.0936 12.6214 10.0938H13.9411C14.0478 10.0936 14.1502 10.0512 14.2257 9.97569C14.3012 9.90019 14.3436 9.79783 14.3437 9.69106V8.37144C14.3436 8.26467 14.3012 8.16231 14.2257 8.08681C14.1502 8.01132 14.0478 7.96886 13.9411 7.96875H12.6214Z" fill="white"/>
</g>
<defs>
<clipPath id="clip0_12_75">
<rect width="17" height="17" fill="white"/>
</clipPath>
</defs>
</svg>
