<svg width="20" height="20" viewBox="0 0 20 20" fill="none" xmlns="http://www.w3.org/2000/svg">
<path d="M13.888 20H6.11203C5.71364 19.9995 5.3317 19.8411 5.05 19.5594C4.76829 19.2777 4.60983 18.8957 4.60938 18.4973V1.50266C4.60983 1.10427 4.76829 0.722324 5.05 0.44062C5.3317 0.158916 5.71364 0.000454901 6.11203 0L13.888 0C14.2864 0.000454901 14.6683 0.158916 14.95 0.44062C15.2317 0.722324 15.3902 1.10427 15.3906 1.50266V18.4973C15.3902 18.8957 15.2317 19.2777 14.95 19.5594C14.6683 19.8411 14.2864 19.9995 13.888 20ZM6.11203 0.625C5.87934 0.625259 5.65626 0.717809 5.49172 0.882345C5.32718 1.04688 5.23463 1.26997 5.23438 1.50266V18.4973C5.23463 18.73 5.32718 18.9531 5.49172 19.1177C5.65626 19.2822 5.87934 19.3747 6.11203 19.375H13.888C14.1207 19.3747 14.3437 19.2822 14.5083 19.1177C14.6728 18.9531 14.7654 18.73 14.7656 18.4973V1.50266C14.7654 1.26997 14.6728 1.04688 14.5083 0.882345C14.3437 0.717809 14.1207 0.625259 13.888 0.625H6.11203Z" fill="white"/>
<path d="M10 19.1406C9.78368 19.1406 9.57221 19.0765 9.39235 18.9563C9.21248 18.8361 9.07229 18.6653 8.98951 18.4654C8.90672 18.2656 8.88506 18.0457 8.92727 17.8335C8.96947 17.6213 9.07364 17.4264 9.2266 17.2735C9.37957 17.1205 9.57445 17.0163 9.78662 16.9741C9.99879 16.9319 10.2187 16.9536 10.4186 17.0364C10.6184 17.1192 10.7892 17.2594 10.9094 17.4392C11.0296 17.6191 11.0938 17.8306 11.0938 18.0469C11.0934 18.3369 10.9781 18.6149 10.773 18.8199C10.568 19.025 10.29 19.1403 10 19.1406ZM10 17.5781C9.90729 17.5781 9.81666 17.6056 9.73958 17.6571C9.66249 17.7086 9.60241 17.7818 9.56693 17.8675C9.53145 17.9531 9.52217 18.0474 9.54026 18.1383C9.55834 18.2293 9.60299 18.3128 9.66854 18.3783C9.7341 18.4439 9.81762 18.4885 9.90855 18.5066C9.99948 18.5247 10.0937 18.5154 10.1794 18.4799C10.265 18.4445 10.3382 18.3844 10.3898 18.3073C10.4413 18.2302 10.4688 18.1396 10.4688 18.0469C10.4686 17.9226 10.4192 17.8034 10.3313 17.7156C10.2434 17.6277 10.1243 17.5783 10 17.5781Z" fill="white"/>
<path d="M13.888 20H6.11203C5.71364 19.9995 5.3317 19.8411 5.05 19.5594C4.76829 19.2777 4.60983 18.8957 4.60938 18.4973V16.4062C4.60938 16.3234 4.6423 16.2439 4.7009 16.1853C4.75951 16.1267 4.83899 16.0938 4.92188 16.0938H15.0781C15.161 16.0938 15.2405 16.1267 15.2991 16.1853C15.3577 16.2439 15.3906 16.3234 15.3906 16.4062V18.4973C15.3902 18.8957 15.2317 19.2777 14.95 19.5594C14.6683 19.8411 14.2864 19.9995 13.888 20ZM5.23438 16.7187V18.4973C5.23463 18.73 5.32718 18.9531 5.49172 19.1177C5.65626 19.2822 5.87934 19.3747 6.11203 19.375H13.888C14.1207 19.3747 14.3437 19.2822 14.5083 19.1177C14.6728 18.9531 14.7654 18.73 14.7656 18.4973V16.7187H5.23438Z" fill="white"/>
<path d="M15.0781 3.90625H4.92188C4.83899 3.90625 4.75951 3.87333 4.7009 3.81472C4.6423 3.75612 4.60938 3.67663 4.60938 3.59375V1.50266C4.60983 1.10427 4.76829 0.722324 5.05 0.44062C5.3317 0.158916 5.71364 0.000454901 6.11203 0L13.888 0C14.2864 0.000454901 14.6683 0.158916 14.95 0.44062C15.2317 0.722324 15.3902 1.10427 15.3906 1.50266V3.59375C15.3906 3.67663 15.3577 3.75612 15.2991 3.81472C15.2405 3.87333 15.161 3.90625 15.0781 3.90625ZM5.23438 3.28125H14.7656V1.50266C14.7654 1.26997 14.6728 1.04688 14.5083 0.882345C14.3437 0.717809 14.1207 0.625258 13.888 0.625H6.11203C5.87934 0.625258 5.65626 0.717809 5.49172 0.882345C5.32718 1.04688 5.23463 1.26997 5.23438 1.50266V3.28125Z" fill="white"/>
</svg>
