<svg width="40" height="40" viewBox="0 0 40 40" fill="none" xmlns="http://www.w3.org/2000/svg">
<path fill-rule="evenodd" clip-rule="evenodd" d="M18.1477 20.4381L4.27543 15.814C1.92221 15.0296 0.745605 14.6374 0.745605 13.9167C0.745605 13.1959 1.92221 12.8037 4.27543 12.0193L36.0386 1.43157C37.6944 0.879642 38.5223 0.603677 38.9593 1.04069C39.3963 1.47771 39.1203 2.3056 38.5684 3.96139L27.9807 35.7246C27.1963 38.0778 26.8041 39.2544 26.0833 39.2544C25.3626 39.2544 24.9704 38.0778 24.186 35.7246L19.5619 21.8523L29.0821 12.3321C29.4726 11.9416 29.4726 11.3084 29.0821 10.9179C28.6916 10.5274 28.0584 10.5274 27.6679 10.9179L18.1477 20.4381Z" fill="white"/>
</svg>
