<svg width="16" height="16" viewBox="0 0 16 16" fill="none" xmlns="http://www.w3.org/2000/svg">
<path d="M7.64767 8.42223C6.75103 8.42223 5.87452 8.17526 5.12899 7.71254C4.38346 7.24982 3.80238 6.59214 3.45925 5.82267C3.11611 5.0532 3.02632 4.20649 3.20124 3.38962C3.37616 2.57274 3.80792 1.82239 4.44193 1.23345C5.07594 0.644513 5.88373 0.243433 6.76314 0.0809325C7.64255 -0.0815684 8.55409 0.00180789 9.38249 0.320518C10.2109 0.639228 10.9189 1.17896 11.4171 1.87146C11.9153 2.56395 12.1812 3.37812 12.1812 4.21099C12.1799 5.32747 11.7018 6.39787 10.8519 7.18736C10.002 7.97684 8.84964 8.42094 7.64767 8.42223ZM7.64767 0.500001C6.85748 0.500001 6.08503 0.717657 5.42801 1.12545C4.771 1.53323 4.25891 2.11284 3.95653 2.79096C3.65414 3.46909 3.57503 4.21528 3.7292 4.93517C3.88336 5.65506 4.26389 6.31631 4.82265 6.83532C5.38141 7.35432 6.09331 7.70776 6.86832 7.85094C7.64333 7.99412 8.44665 7.92061 9.17668 7.63971C9.90672 7.3588 10.5307 6.88312 10.9697 6.27281C11.4087 5.66251 11.643 4.94499 11.6429 4.21099C11.6417 3.2271 11.2204 2.28383 10.4714 1.58812C9.7224 0.892417 8.7069 0.501092 7.64767 0.500001Z" fill="white"/>
<path d="M14.8784 16.0001H0.416723C0.345343 16.0001 0.276886 15.9738 0.226412 15.9269C0.175939 15.88 0.147583 15.8164 0.147583 15.7501V14.315C0.147583 12.1195 1.70591 10.3335 3.62124 10.3335H11.6739C13.5893 10.3335 15.1476 12.1195 15.1476 14.315V15.7501C15.1476 15.8164 15.1192 15.88 15.0688 15.9269C15.0183 15.9738 14.9498 16.0001 14.8784 16.0001ZM0.685864 15.5001H14.6093V14.315C14.6093 12.3952 13.2925 10.8335 11.6739 10.8335H3.62124C2.00263 10.8335 0.685864 12.3952 0.685864 14.315V15.5001Z" fill="white"/>
</svg>
